<?xml version="1.0" encoding="UTF-8"?>
<svg version="1.1" xmlns="http://www.w3.org/2000/svg" width="512" height="512">
<path d="M0 0 C1.01790619 0.00215515 2.03581238 0.0043103 3.08456421 0.00653076 C17.69363523 0.05620146 32.02575853 0.30709809 46.375 3.3125 C47.34985352 3.51117676 48.32470703 3.70985352 49.32910156 3.91455078 C88.28620441 12.06367837 124.98626621 27.61126737 156.375 52.3125 C157.8290625 53.44945313 157.8290625 53.44945313 159.3125 54.609375 C174.66959924 66.91250564 189.34176314 80.71840733 201.375 96.3125 C202.04499023 97.15989746 202.04499023 97.15989746 202.72851562 98.02441406 C214.99290279 113.54990012 225.00383143 130.40123664 233.375 148.3125 C233.66681152 148.92416016 233.95862305 149.53582031 234.25927734 150.16601562 C241.71734345 165.88730356 247.26347847 182.55941215 251.1875 199.5 C251.46134521 200.67006592 251.46134521 200.67006592 251.74072266 201.86376953 C252.35188207 204.67126547 252.87497566 207.48284997 253.375 210.3125 C253.49994843 211.01713379 253.62489685 211.72176758 253.75363159 212.44775391 C256.23130039 226.81182438 256.90047176 240.87902306 256.8125 255.4375 C256.80793793 257.0457515 256.80793793 257.0457515 256.80328369 258.68649292 C256.73407964 275.21564915 255.94876581 291.11964387 252.375 307.3125 C252.06151611 308.80547607 252.06151611 308.80547607 251.74169922 310.32861328 C239.57084456 367.28091971 207.04154697 421.83049734 160.375 457.3125 C159.20001566 458.23894299 158.02557379 459.16607424 156.8515625 460.09375 C141.88128546 471.77410733 125.5595802 481.28096059 108.375 489.3125 C107.76333984 489.60431152 107.15167969 489.89612305 106.52148438 490.19677734 C73.08230523 506.06008382 37.02116628 512.97668751 0.1875 512.75 C-1.41800217 512.74493942 -1.41800217 512.74493942 -3.05593872 512.73977661 C-19.53919033 512.66469851 -35.49788774 512.02220906 -51.625 508.3125 C-52.70104492 508.06580566 -53.77708984 507.81911133 -54.88574219 507.56494141 C-96.90154776 497.60803898 -135.22860553 478.96414995 -167.625 450.3125 C-168.4603125 449.58804687 -169.295625 448.86359375 -170.15625 448.1171875 C-181.23147413 438.3724286 -191.57614912 427.97287586 -200.625 416.3125 C-201.388125 415.37792969 -202.15125 414.44335938 -202.9375 413.48046875 C-230.00308122 379.69186656 -246.23126186 338.69675001 -253.625 296.3125 C-253.81336426 295.25216553 -254.00172852 294.19183105 -254.19580078 293.09936523 C-256.06892868 281.10816624 -256.02219677 269.1106934 -256 257 C-255.99945618 255.8875592 -255.99891235 254.77511841 -255.99835205 253.62896729 C-255.96130651 237.16741201 -255.3457044 221.41024148 -251.625 205.3125 C-251.40537598 204.30767578 -251.18575195 203.30285156 -250.95947266 202.26757812 C-242.25092834 162.79870494 -224.92672447 126.800178 -199.625 95.3125 C-198.41650391 93.79462891 -198.41650391 93.79462891 -197.18359375 92.24609375 C-186.14148143 78.6515226 -173.54654896 65.94730733 -159.625 55.3125 C-158.69558594 54.55453125 -157.76617187 53.7965625 -156.80859375 53.015625 C-126.87101078 29.00438349 -90.5388442 13.03218725 -53.1875 4.9375 C-51.53826538 4.57954346 -51.53826538 4.57954346 -49.85571289 4.21435547 C-33.20581758 0.79614049 -16.95455979 -0.06455986 0 0 Z " fill="#6E7BF2" transform="translate(255.625,-0.3125)"/>
<path d="M0 0 C3.03828651 0.01077754 6.07598842 0.00000893 9.11425781 -0.01269531 C19.18967514 -0.01885765 28.87946769 0.18448977 38.77832031 2.26074219 C37.36901055 9.38883653 35.22982906 16.00881052 32.72753906 22.82324219 C32.32176132 23.94175568 31.91598358 25.06026917 31.49790955 26.212677 C30.390992 29.25981824 29.27901797 32.30505302 28.16461945 35.34946442 C27.21960361 37.93416676 26.27899273 40.52046283 25.33839417 43.10677528 C18.32394559 62.39288899 11.22185167 81.64668125 4.10580444 100.89550781 C-3.1963995 120.65399142 -10.34854928 140.46329322 -17.44995499 160.29450607 C-24.8847223 181.05520002 -32.4293775 201.77161382 -40.08105469 222.45361328 C-46.88761325 240.85643595 -53.58485004 259.29626517 -60.22167969 277.76074219 C-67.27996524 297.39776139 -74.41887759 317.00237354 -81.65917969 336.57324219 C-88.97514253 356.35158244 -96.17798498 376.16733493 -103.29677582 396.01728058 C-104.27076729 398.73287396 -105.24537901 401.44824457 -106.21997261 404.1636219 C-110.06934872 414.88898545 -113.91715884 425.61490988 -117.75683594 436.34375 C-119.66223931 441.66619949 -121.57454768 446.98611521 -123.49252319 452.30404663 C-124.18108067 454.2171725 -124.86702067 456.13124267 -125.55020142 458.04629517 C-126.47189115 460.62931144 -127.40222882 463.20904072 -128.33496094 465.78808594 C-128.60151489 466.54195587 -128.86806885 467.29582581 -129.1427002 468.07254028 C-130.99341671 473.1466107 -130.99341671 473.1466107 -133.22167969 474.26074219 C-157.57477468 458.55189893 -180.52524202 439.33114642 -198.22167969 416.26074219 C-198.9809375 415.33003906 -199.74019531 414.39933594 -200.52246094 413.44042969 C-227.60357381 379.66462384 -243.82855818 338.64145743 -251.22167969 296.26074219 C-251.41004395 295.20040771 -251.5984082 294.14007324 -251.79248047 293.04760742 C-253.66560836 281.05640843 -253.61887646 269.05893559 -253.59667969 256.94824219 C-253.59613586 255.83580139 -253.59559204 254.7233606 -253.59503174 253.57720947 C-253.5579862 237.1156542 -252.94238409 221.35848367 -249.22167969 205.26074219 C-249.00205566 204.25591797 -248.78243164 203.25109375 -248.55615234 202.21582031 C-239.84760803 162.74694713 -222.52340416 126.74842018 -197.22167969 95.26074219 C-196.01318359 93.74287109 -196.01318359 93.74287109 -194.78027344 92.19433594 C-183.73816112 78.59976479 -171.14322865 65.89554951 -157.22167969 55.26074219 C-156.29226562 54.50277344 -155.36285156 53.74480469 -154.40527344 52.96386719 C-124.46769047 28.95262568 -88.13552389 12.98042944 -50.78417969 4.88574219 C-49.13494507 4.52778564 -49.13494507 4.52778564 -47.45239258 4.16259766 C-31.5911605 0.90629483 -16.15804522 -0.06813318 0 0 Z " fill="#FEFEFE" transform="translate(253.2216796875,-0.2607421875)"/>
<path d="M0 0 C0.58265625 0.57621094 1.1653125 1.15242187 1.765625 1.74609375 C1.765625 5.74609375 1.765625 5.74609375 0.38867188 7.57714844 C-0.55395508 8.48835449 -0.55395508 8.48835449 -1.515625 9.41796875 C-2.53076172 10.41376953 -2.53076172 10.41376953 -3.56640625 11.4296875 C-4.28183594 12.11160156 -4.99726563 12.79351562 -5.734375 13.49609375 C-6.44980469 14.19347656 -7.16523438 14.89085937 -7.90234375 15.609375 C-9.67105844 17.33092396 -11.44841805 19.04246815 -13.234375 20.74609375 C-13.83958984 20.44195557 -14.44480469 20.13781738 -15.06835938 19.82446289 C-17.60284464 18.56264803 -20.16239612 17.36712799 -22.734375 16.18359375 C-23.6728125 15.74917969 -24.61125 15.31476563 -25.578125 14.8671875 C-33.58508804 11.4877781 -42.77083028 11.59777645 -50.984375 14.30859375 C-61.39557369 18.65163739 -68.23894687 25.92586075 -73.33203125 35.89453125 C-76.89737349 44.81617835 -76.31208129 54.71550399 -73.109375 63.62109375 C-68.33393684 74.58198801 -61.25267371 82.22625749 -49.921875 86.68359375 C-40.94274034 89.2627069 -30.21926378 88.79258886 -21.85546875 84.53515625 C-20.29559403 83.66883739 -18.74725417 82.78120929 -17.21484375 81.8671875 C-15.234375 80.74609375 -15.234375 80.74609375 -12.234375 79.74609375 C-11.13440608 77.95422366 -11.13440608 77.95422366 -10.234375 75.74609375 C-9.82058594 74.94171875 -9.40679687 74.13734375 -8.98046875 73.30859375 C-8.54863281 72.46296875 -8.11679688 71.61734375 -7.671875 70.74609375 C-7.23746094 69.90046875 -6.80304688 69.05484375 -6.35546875 68.18359375 C-5.05568197 65.55558662 -5.05568197 65.55558662 -4.234375 61.74609375 C-15.454375 61.74609375 -26.674375 61.74609375 -38.234375 61.74609375 C-38.234375 54.15609375 -38.234375 46.56609375 -38.234375 38.74609375 C-18.764375 38.74609375 0.705625 38.74609375 20.765625 38.74609375 C24.68743007 46.58970389 22.43269153 62.64765737 19.765625 70.74609375 C14.23972488 86.61147106 5.76394911 99.06849728 -9.484375 106.68359375 C-23.8253572 113.54585107 -41.81831031 115.55477055 -57.27734375 110.90625 C-75.40487831 103.79412614 -87.85192729 92.40612486 -96.609375 75.015625 C-103.34110685 59.44849509 -103.19732605 42.19832523 -97.01708984 26.58300781 C-89.7202475 9.45841587 -77.13786733 -1.70823093 -60.3046875 -9.03125 C-40.11694109 -17.07039074 -17.44698691 -11.87821593 0 0 Z " fill="#35A854" transform="translate(147.234375,203.25390625)"/>
<path d="M0 0 C53.39240506 0 53.39240506 0 64.9765625 10.8515625 C72.49205925 18.87875265 74.78334814 26.20261457 74.44140625 37.2109375 C73.40315448 46.12336423 69.88955933 53.26071582 63.2578125 59.3125 C56.1875394 64.59685637 49.25156452 67.16196185 40.48828125 67.09765625 C39.84258179 67.09664917 39.19688232 67.09564209 38.53161621 67.09460449 C36.12522601 67.08938211 33.71886118 67.07542083 31.3125 67.0625 C25.929375 67.041875 20.54625 67.02125 15 67 C15 82.18 15 97.36 15 113 C10.05 113 5.1 113 0 113 C0 75.71 0 38.42 0 0 Z " fill="#FAFAFE" transform="translate(253,193)"/>
<path d="M0 0 C1.00869141 0.00652588 2.01738281 0.01305176 3.05664062 0.01977539 C13.14628463 0.3421463 20.65905398 2.77109494 28.10546875 9.875 C35.31066522 18.43209932 36.24970858 26.67755689 36.10546875 37.5 C36.10122391 38.70946289 36.09697906 39.91892578 36.09260559 41.16503906 C36.07589038 45.00609134 36.03825015 48.84660784 36 52.6875 C35.98494397 55.30077364 35.97125717 57.91405555 35.95898438 60.52734375 C35.9260101 66.91426712 35.87427618 73.3007929 35.8125 79.6875 C31.1925 79.6875 26.5725 79.6875 21.8125 79.6875 C21.4825 76.3875 21.1525 73.0875 20.8125 69.6875 C19.966875 70.76 19.12125 71.8325 18.25 72.9375 C14.27938644 77.57457589 9.87384083 80.45232306 3.8125 81.6875 C-14.49039909 82.82676209 -14.49039909 82.82676209 -21.1875 77.6875 C-21.79722656 77.275 -22.40695312 76.8625 -23.03515625 76.4375 C-28.87448328 72.07350188 -32.53979004 66.12277109 -33.59765625 58.87890625 C-33.82806697 51.65603096 -32.64808214 45.72704265 -28.0625 40.0625 C-16.51501152 30.52327039 -6.82268995 28.93310877 7.8125 29.6875 C10.68817684 30.11064764 13.03423132 30.76141044 15.8125 31.6875 C16.9675 32.05875 18.1225 32.43 19.3125 32.8125 C20.1375 33.10125 20.9625 33.39 21.8125 33.6875 C20.7302582 27.27948936 19.57561114 21.7379007 14.265625 17.43359375 C8.04305762 13.6176176 0.86509632 13.71869166 -6.1875 14.6875 C-10.69690779 16.48031463 -13.84378854 19.24277006 -17.1875 22.6875 C-22.44920694 21.27582253 -25.90921358 18.93899768 -30.1875 15.6875 C-28.79718119 12.50164383 -27.21840755 10.49275116 -24.625 8.1875 C-24.00496094 7.6203125 -23.38492187 7.053125 -22.74609375 6.46875 C-15.47634144 1.40767053 -8.78658143 -0.06521062 0 0 Z " fill="#FBFBFE" transform="translate(360.1875,226.3125)"/>
<path d="M0 0 C0.58265625 0.57621094 1.1653125 1.15242187 1.765625 1.74609375 C1.765625 5.74609375 1.765625 5.74609375 0.38867188 7.57714844 C-0.55395508 8.48835449 -0.55395508 8.48835449 -1.515625 9.41796875 C-2.53076172 10.41376953 -2.53076172 10.41376953 -3.56640625 11.4296875 C-4.28183594 12.11160156 -4.99726563 12.79351562 -5.734375 13.49609375 C-6.44980469 14.19347656 -7.16523438 14.89085937 -7.90234375 15.609375 C-9.67105844 17.33092396 -11.44841805 19.04246815 -13.234375 20.74609375 C-13.83958984 20.44195557 -14.44480469 20.13781738 -15.06835938 19.82446289 C-17.60284464 18.56264803 -20.16239612 17.36712799 -22.734375 16.18359375 C-23.6728125 15.74917969 -24.61125 15.31476563 -25.578125 14.8671875 C-33.58508804 11.4877781 -42.77083028 11.59777645 -50.984375 14.30859375 C-61.39557369 18.65163739 -68.23894687 25.92586075 -73.33203125 35.89453125 C-76.29226734 43.30200574 -76.23870136 52.25391663 -74.515625 59.9609375 C-74.234375 62.74609375 -74.234375 62.74609375 -75.5 64.58203125 C-76.48226562 65.34386719 -76.48226562 65.34386719 -77.484375 66.12109375 C-78.21398437 66.69730469 -78.94359375 67.27351563 -79.6953125 67.8671875 C-80.95214844 68.79724609 -80.95214844 68.79724609 -82.234375 69.74609375 C-83.67683594 70.84630859 -83.67683594 70.84630859 -85.1484375 71.96875 C-92.87194114 77.74609375 -92.87194114 77.74609375 -95.234375 77.74609375 C-102.36123635 61.79714676 -103.78278167 44.9918595 -97.77734375 28.50390625 C-90.64420684 10.48093861 -77.85921169 -1.39442103 -60.3046875 -9.03125 C-40.11694109 -17.07039074 -17.44698691 -11.87821593 0 0 Z " fill="#EB4436" transform="translate(147.234375,203.25390625)"/>
<path d="M0 0 C5.28 0 10.56 0 16 0 C20.65059747 9.9100271 25.02834371 19.91340488 29.28857422 29.99633789 C30.387584 32.59222369 31.49653229 35.18373259 32.60546875 37.77539062 C33.30790577 39.43463599 34.00975106 41.09413201 34.7109375 42.75390625 C35.04209564 43.52368301 35.37325378 44.29345978 35.71444702 45.08656311 C37.21195325 48.66171203 38 51.06921774 38 55 C38.66 55 39.32 55 40 55 C40.19101036 53.9120665 40.19101036 53.9120665 40.38587952 52.80215454 C40.97907269 50.09548869 41.78913946 47.73104441 42.82592773 45.16552734 C43.19979111 44.23461273 43.57365448 43.30369812 43.95884705 42.34457397 C44.36301346 41.35172394 44.76717987 40.3588739 45.18359375 39.3359375 C45.59916031 38.30691315 46.01472687 37.27788879 46.44288635 36.21768188 C47.32088568 34.04660543 48.20105851 31.87640686 49.08325195 29.70703125 C50.43442888 26.38255628 51.777274 23.05480468 53.11914062 19.7265625 C53.97346353 17.61698705 54.82826497 15.50760532 55.68359375 13.3984375 C56.28680702 11.90308975 56.28680702 11.90308975 56.90220642 10.37753296 C57.27922195 9.45292267 57.65623749 8.52831238 58.04467773 7.57568359 C58.53979103 6.35587296 58.53979103 6.35587296 59.04490662 5.11141968 C60 3 60 3 62 0 C64.62697064 -0.22137393 67.00893964 -0.28162025 69.625 -0.1875 C70.33140625 -0.17396484 71.0378125 -0.16042969 71.765625 -0.14648438 C73.51074128 -0.1111104 75.25546608 -0.05730221 77 0 C74.63497059 7.56809413 71.62234303 14.74324722 68.4375 22 C67.87145014 23.29739753 67.30570438 24.59492776 66.74023438 25.89257812 C64.83307576 30.26446606 62.91706897 34.63245047 61 39 C60.64818665 39.80179687 60.29637329 40.60359375 59.93389893 41.4296875 C56.52323717 49.20242517 53.1111705 56.9745437 49.69335938 64.74414062 C46.1054992 72.90329459 42.52851915 81.06666941 38.99609375 89.25 C38.53524887 90.31716248 38.53524887 90.31716248 38.06509399 91.40588379 C36.63800252 94.71237212 35.21417075 98.02021614 33.79492188 101.33007812 C33.30443359 102.46896484 32.81394531 103.60785156 32.30859375 104.78125 C31.88376709 105.77189453 31.45894043 106.76253906 31.02124023 107.78320312 C30 110 30 110 29 111 C26.46950598 111.07313567 23.96695163 111.09247527 21.4375 111.0625 C20.72658203 111.05798828 20.01566406 111.05347656 19.28320312 111.04882812 C17.52209987 111.03700864 15.76103964 111.01907263 14 111 C16.52133463 104.7016435 19.17988054 98.52477388 22.21875 92.45703125 C22.75757813 91.36326172 23.29640625 90.26949219 23.8515625 89.14257812 C24.96137661 86.90059584 26.09207289 84.66884351 27.2421875 82.44726562 C28.03496094 80.81241211 28.03496094 80.81241211 28.84375 79.14453125 C29.33037109 78.17878174 29.81699219 77.21303223 30.31835938 76.21801758 C31.31521921 71.51185374 29.82919598 68.34482887 28 64 C27.6706546 63.20904434 27.3413092 62.41808868 27.00198364 61.60316467 C25.90219174 59.03631862 24.76326918 56.49004797 23.61328125 53.9453125 C23.19257858 53.0042868 22.77187592 52.06326111 22.33842468 51.09371948 C21.00045161 48.10233424 19.65689165 45.1135054 18.3125 42.125 C16.55585334 38.21216073 14.80195703 34.29810328 13.05078125 30.3828125 C12.62507843 29.43134338 12.19937561 28.47987427 11.76077271 27.49957275 C7.70068405 18.39124117 3.82225233 9.21026278 0 0 Z " fill="#FBFBFE" transform="translate(398,229)"/>
<path d="M0 0 C19.47 0 38.94 0 59 0 C62.92180507 7.84361014 60.66706653 23.90156362 58 32 C54.44524146 42.20604504 49.86173582 52.44474336 41 59 C38.9571299 57.43905326 36.91569142 55.87629071 34.875 54.3125 C34.30523437 53.87744141 33.73546875 53.44238281 33.1484375 52.99414062 C29.35374828 50.0834415 25.65577385 47.08351746 22 44 C22.66 43.01 23.32 42.02 24 41 C24.66 41 25.32 41 26 41 C26.27714844 40.443125 26.55429688 39.88625 26.83984375 39.3125 C27.63627621 37.72499827 28.44144722 36.1418596 29.25390625 34.5625 C29.90166016 33.2940625 29.90166016 33.2940625 30.5625 32 C30.99691406 31.154375 31.43132812 30.30875 31.87890625 29.4375 C33.17869303 26.80949287 33.17869303 26.80949287 34 23 C22.78 23 11.56 23 0 23 C0 15.41 0 7.82 0 0 Z " fill="#4385F3" transform="translate(109,242)"/>
<path d="M0 0 C4.62 -0.0825 9.24 -0.165 14 -0.25 C16.16175781 -0.30462402 16.16175781 -0.30462402 18.3671875 -0.36035156 C25.72396386 -0.42384267 30.85652407 -0.20304551 37 4 C39.05859375 6.0703125 39.05859375 6.0703125 40.4375 8.125 C40.91058594 8.80820313 41.38367188 9.49140625 41.87109375 10.1953125 C44.96893621 15.14757277 44.61515397 20.29909632 44 26 C42.12457403 31.3721314 38.49328607 35.08563148 33.6796875 37.98999023 C27.78268331 40.21264934 21.19906201 39.49507246 15 39.3125 C10.05 39.209375 5.1 39.10625 0 39 C0 26.13 0 13.26 0 0 Z " fill="#6F7BF2" transform="translate(268,207)"/>
<path d="M0 0 C5.34634876 1.58175999 9.1177231 5.11623219 13.3125 8.625 C14.42334961 9.54152344 14.42334961 9.54152344 15.55664062 10.4765625 C17.37580451 11.97883977 19.18998451 13.486724 21 15 C20.83757812 15.68191406 20.67515625 16.36382812 20.5078125 17.06640625 C19.92977673 20.40567442 19.86764194 23.54911293 19.875 26.9375 C19.87242188 28.12214844 19.86984375 29.30679688 19.8671875 30.52734375 C19.8965821 33.98522965 19.8965821 33.98522965 20.7109375 37.23046875 C21 40 21 40 19.734375 41.8359375 C18.75210938 42.59777344 18.75210938 42.59777344 17.75 43.375 C17.02039063 43.95121094 16.29078125 44.52742188 15.5390625 45.12109375 C14.28222656 46.05115234 14.28222656 46.05115234 13 47 C11.55753906 48.10021484 11.55753906 48.10021484 10.0859375 49.22265625 C2.36243386 55 2.36243386 55 0 55 C-8.00638323 37.08280257 -7.87710576 20.08340598 -1 2 C-0.67 1.34 -0.34 0.68 0 0 Z " fill="#FABC08" transform="translate(52,226)"/>
<path d="M0 0 C0.495 0.495 0.495 0.495 1 1 C0.75316517 7.04745338 -1.14630231 11.33200747 -5 16 C-10.94499332 21.44056965 -16.49768121 24.53006183 -24.65625 24.3125 C-30.10980193 23.58535974 -33.83980405 21.27621554 -37.5 17.25 C-39.32991464 13.28518495 -39.99239174 10.28610571 -39 6 C-35.9722958 1.41519078 -32.57991269 -1.83673318 -27.29296875 -3.5546875 C-17.91823016 -5.3753352 -8.39827865 -4.64704752 0 0 Z " fill="#707DF2" transform="translate(381,272)"/>
<path d="M0 0 C3.85025879 0.60355408 6.86101159 1.76772603 10.3125 3.5625 C11.19550781 4.01753906 12.07851563 4.47257812 12.98828125 4.94140625 C13.65214844 5.29074219 14.31601562 5.64007813 15 6 C12.19966161 7.11346788 11.09856297 7.03510273 8.203125 6.00390625 C7.22859375 5.52824219 6.2540625 5.05257813 5.25 4.5625 C4.26515625 4.08941406 3.2803125 3.61632812 2.265625 3.12890625 C1.51796875 2.75636719 0.7703125 2.38382813 0 2 C0 1.34 0 0.68 0 0 Z " fill="#8A95F7" transform="translate(362,23)"/>
<path d="M0 0 C3.17218843 3.62535821 4.42902597 7.51150278 6 12 C5.01 12.495 5.01 12.495 4 13 C3.13372601 11.40233897 2.28233535 9.79660056 1.4375 8.1875 C0.96183594 7.29417969 0.48617188 6.40085938 -0.00390625 5.48046875 C-1 3 -1 3 0 0 Z " fill="#7784F7" transform="translate(484,139)"/>
<path d="M0 0 C4.10958767 1.45044271 7.43258745 3.51110752 11 6 C10.34 6.66 9.68 7.32 9 8 C7.49460339 7.05016642 5.99579653 6.08988109 4.5 5.125 C3.6646875 4.59132813 2.829375 4.05765625 1.96875 3.5078125 C1.3190625 3.01023438 0.669375 2.51265625 0 2 C0 1.34 0 0.68 0 0 Z " fill="#7A85F6" transform="translate(392,39)"/>
<path d="M0 0 C0.66 0.33 1.32 0.66 2 1 C0.02 3.97 -1.96 6.94 -4 10 C-4.66 9.34 -5.32 8.68 -6 8 C-4.02 5.36 -2.04 2.72 0 0 Z " fill="#7582F6" transform="translate(468,397)"/>
<path d="M0 0 C0.66 0.66 1.32 1.32 2 2 C-0.64 3.98 -3.28 5.96 -6 8 C-4.21844267 4.43688534 -2.83236991 2.64354525 0 0 Z " fill="#7784F6" transform="translate(428,443)"/>
<path d="M0 0 C0.66 0.33 1.32 0.66 2 1 C0.02 3.31 -1.96 5.62 -4 8 C-4.66 7.34 -5.32 6.68 -6 6 C-4.02 4.02 -2.04 2.04 0 0 Z " fill="#7582F6" transform="translate(449,422)"/>
<path d="M0 0 C2.66735273 2.48952921 4.55746343 4.63408134 6 8 C5.01 8 4.02 8 3 8 C0.89229241 5.11165997 0 3.61537605 0 0 Z " fill="#7885F6" transform="translate(467,111)"/>
<path d="M0 0 C2.64752004 2.57784846 4.94432065 4.91648098 7 8 C4.13792848 6.71700242 1.9754912 5.469364 0 3 C0 2.01 0 1.02 0 0 Z " fill="#7682F6" transform="translate(444,82)"/>
<path d="M0 0 C1.98 0 3.96 0 6 0 C6 0.33 6 0.66 6 1 C4.02 1 2.04 1 0 1 C0 0.67 0 0.34 0 0 Z " fill="#FEFEFE" transform="translate(217,0)"/>
<path d="M0 0 C1.65 0 3.3 0 5 0 C5 0.33 5 0.66 5 1 C3.35 1 1.7 1 0 1 C0 0.67 0 0.34 0 0 Z " fill="#7D89F3" transform="translate(290,511)"/>
<path d="M0 0 C1.65 0 3.3 0 5 0 C5 0.33 5 0.66 5 1 C3.35 1 1.7 1 0 1 C0 0.67 0 0.34 0 0 Z " fill="#7682F2" transform="translate(217,511)"/>
<path d="M0 0 C0.33 0 0.66 0 1 0 C1 1.65 1 3.3 1 5 C0.67 5 0.34 5 0 5 C0 3.35 0 1.7 0 0 Z " fill="#717EF1" transform="translate(511,290)"/>
<path d="M0 0 C0.33 0 0.66 0 1 0 C1 1.65 1 3.3 1 5 C0.67 5 0.34 5 0 5 C0 3.35 0 1.7 0 0 Z " fill="#FEFEFE" transform="translate(0,290)"/>
<path d="M0 0 C0.33 0 0.66 0 1 0 C1 1.65 1 3.3 1 5 C0.67 5 0.34 5 0 5 C0 3.35 0 1.7 0 0 Z " fill="#707CF1" transform="translate(511,217)"/>
<path d="M0 0 C0.33 0 0.66 0 1 0 C1 1.65 1 3.3 1 5 C0.67 5 0.34 5 0 5 C0 3.35 0 1.7 0 0 Z " fill="#FFFFFF" transform="translate(0,217)"/>
<path d="M0 0 C1.65 0 3.3 0 5 0 C5 0.33 5 0.66 5 1 C3.35 1 1.7 1 0 1 C0 0.67 0 0.34 0 0 Z " fill="#FFFFFF" transform="translate(211,1)"/>
<path d="M0 0 C1.65 0 3.3 0 5 0 C5 0.33 5 0.66 5 1 C3.35 1 1.7 1 0 1 C0 0.67 0 0.34 0 0 Z " fill="#DDE0FB" transform="translate(289,0)"/>
<path d="M0 0 C4 1 4 1 4 1 Z " fill="#808CF3" transform="translate(297,510)"/>
<path d="M0 0 C4 1 4 1 4 1 Z " fill="#7A86F2" transform="translate(211,510)"/>
<path d="M0 0 C4 1 4 1 4 1 Z " fill="#626AEF" transform="translate(302,509)"/>
<path d="M0 0 C1 4 1 4 1 4 Z " fill="#6A77F1" transform="translate(509,302)"/>
<path d="M0 0 C1 4 1 4 1 4 Z " fill="#FEFEFE" transform="translate(2,303)"/>
<path d="M0 0 C1 4 1 4 1 4 Z " fill="#FEFEFE" transform="translate(1,297)"/>
<path d="M0 0 C1 4 1 4 1 4 Z " fill="#717DF2" transform="translate(510,297)"/>
<path d="M0 0 C1 4 1 4 1 4 Z " fill="#707DF1" transform="translate(510,211)"/>
<path d="M0 0 C1 4 1 4 1 4 Z " fill="#FFFFFF" transform="translate(1,211)"/>
<path d="M0 0 C1 4 1 4 1 4 Z " fill="#FFFFFF" transform="translate(2,205)"/>
<path d="M0 0 C4 1 4 1 4 1 Z " fill="#FFFFFF" transform="translate(201,3)"/>
<path d="M0 0 C4 1 4 1 4 1 Z " fill="#676FEF" transform="translate(302,2)"/>
<path d="M0 0 C4 1 4 1 4 1 Z " fill="#FEFEFE" transform="translate(206,2)"/>
<path d="M0 0 C4 1 4 1 4 1 Z " fill="#8590F3" transform="translate(297,1)"/>
<path d="M0 0 C3 1 3 1 3 1 Z " fill="#818CF3" transform="translate(206,509)"/>
<path d="M0 0 C3 1 3 1 3 1 Z " fill="#838EF3" transform="translate(308,508)"/>
<path d="M0 0 C3 1 3 1 3 1 Z " fill="#7D88F2" transform="translate(201,508)"/>
<path d="M0 0 C3 1 3 1 3 1 Z " fill="#6C79F1" transform="translate(312,507)"/>
<path d="M0 0 C3 1 3 1 3 1 Z " fill="#5C62EF" transform="translate(197,507)"/>
<path d="M0 0 C3 1 3 1 3 1 Z " fill="#848FF3" transform="translate(192,506)"/>
<path d="M0 0 C3 1 3 1 3 1 Z " fill="#717DF2" transform="translate(324,504)"/>
<path d="M0 0 C3 1 3 1 3 1 Z " fill="#5D69EF" transform="translate(185,504)"/>
<path d="M0 0 C3 1 3 1 3 1 Z " fill="#727FF1" transform="translate(178,502)"/>
<path d="M0 0 C3 1 3 1 3 1 Z " fill="#606DF1" transform="translate(175,501)"/>
<path d="M0 0 C3 1 3 1 3 1 Z " fill="#5E64EF" transform="translate(172,500)"/>
<path d="" fill="#FFFFFF" transform="translate(0,0)"/>
<path d="" fill="#FEFEFE" transform="translate(0,0)"/>
<path d="" fill="#6C7AF1" transform="translate(0,0)"/>
<path d="" fill="#FFFFFF" transform="translate(0,0)"/>
<path d="" fill="#6D7AF1" transform="translate(0,0)"/>
<path d="" fill="#FFFFFF" transform="translate(0,0)"/>
<path d="" fill="#FFFFFF" transform="translate(0,0)"/>
<path d="" fill="#6F7CF2" transform="translate(0,0)"/>
<path d="" fill="#FFFFFF" transform="translate(0,0)"/>
<path d="" fill="#FFFFFF" transform="translate(0,0)"/>
<path d="" fill="#5D6CF0" transform="translate(0,0)"/>
<path d="" fill="#FFFFFF" transform="translate(0,0)"/>
<path d="" fill="#FFFFFF" transform="translate(0,0)"/>
<path d="" fill="#707CF2" transform="translate(0,0)"/>
<path d="" fill="#727FF2" transform="translate(0,0)"/>
<path d="" fill="#FFFFFF" transform="translate(0,0)"/>
<path d="" fill="#717DF1" transform="translate(0,0)"/>
<path d="" fill="#717EF1" transform="translate(0,0)"/>
<path d="" fill="#FFFFFF" transform="translate(0,0)"/>
<path d="" fill="#6D7BF1" transform="translate(0,0)"/>
<path d="" fill="#FFFFFF" transform="translate(0,0)"/>
<path d="" fill="#737FF2" transform="translate(0,0)"/>
<path d="" fill="#FFFFFF" transform="translate(0,0)"/>
<path d="" fill="#FFFFFF" transform="translate(0,0)"/>
<path d="" fill="#6F7BF1" transform="translate(0,0)"/>
<path d="" fill="#FFFFFF" transform="translate(0,0)"/>
<path d="" fill="#707DF2" transform="translate(0,0)"/>
<path d="" fill="#FEFEFE" transform="translate(0,0)"/>
<path d="" fill="#6D7AF1" transform="translate(0,0)"/>
<path d="" fill="#FFFFFF" transform="translate(0,0)"/>
<path d="" fill="#6C79F1" transform="translate(0,0)"/>
<path d="" fill="#FFFFFF" transform="translate(0,0)"/>
<path d="" fill="#FEFEFE" transform="translate(0,0)"/>
<path d="" fill="#FFFFFF" transform="translate(0,0)"/>
<path d="M0 0 C3 1 3 1 3 1 Z " fill="#6D7AF1" transform="translate(324,7)"/>
<path d="M0 0 C3 1 3 1 3 1 Z " fill="#FFFFFF" transform="translate(185,7)"/>
<path d="M0 0 C3 1 3 1 3 1 Z " fill="#5960ED" transform="translate(320,6)"/>
<path d="M0 0 C3 1 3 1 3 1 Z " fill="#FEFEFE" transform="translate(189,6)"/>
<path d="M0 0 C3 1 3 1 3 1 Z " fill="#FFFFFF" transform="translate(193,5)"/>
<path d="M0 0 C3 1 3 1 3 1 Z " fill="#6B78F1" transform="translate(312,4)"/>
<path d="M0 0 C3 1 3 1 3 1 Z " fill="#FEFEFE" transform="translate(197,4)"/>
<path d="M0 0 C3 1 3 1 3 1 Z " fill="#8691F4" transform="translate(308,3)"/>
<path d="M0 0 C2 1 2 1 2 1 Z " fill="#8691F3" transform="translate(317,506)"/>
<path d="M0 0 C2 1 2 1 2 1 Z " fill="#8691F3" transform="translate(321,505)"/>
<path d="M0 0 C2 1 2 1 2 1 Z " fill="#828EF3" transform="translate(189,505)"/>
<path d="M0 0 C2 1 2 1 2 1 Z " fill="#808CF2" transform="translate(328,503)"/>
<path d="M0 0 C2 1 2 1 2 1 Z " fill="#7C87F2" transform="translate(182,503)"/>
<path d="M0 0 C2 1 2 1 2 1 Z " fill="#707DF2" transform="translate(331,502)"/>
<path d="M0 0 C2 1 2 1 2 1 Z " fill="#6572F1" transform="translate(334,501)"/>
<path d="M0 0 C2 1 2 1 2 1 Z " fill="#5E6CF0" transform="translate(337,500)"/>
<path d="M0 0 C2 1 2 1 2 1 Z " fill="#6776EF" transform="translate(340,499)"/>
<path d="M0 0 C2 1 2 1 2 1 Z " fill="#5968EF" transform="translate(170,499)"/>
<path d="M0 0 C2 1 2 1 2 1 Z " fill="#7783F1" transform="translate(343,498)"/>
<path d="M0 0 C2 1 2 1 2 1 Z " fill="#727FF2" transform="translate(167,498)"/>
<path d="M0 0 C2 1 2 1 2 1 Z " fill="#818CF3" transform="translate(346,497)"/>
<path d="M0 0 C2 1 2 1 2 1 Z " fill="#828CF3" transform="translate(164,497)"/>
<path d="M0 0 C2 1 2 1 2 1 Z " fill="#6471F0" transform="translate(348,496)"/>
<path d="M0 0 C2 1 2 1 2 1 Z " fill="#4D5CEE" transform="translate(162,496)"/>
<path d="M0 0 C2 1 2 1 2 1 Z " fill="#7B86F3" transform="translate(351,495)"/>
<path d="M0 0 C2 1 2 1 2 1 Z " fill="#7F8BF3" transform="translate(159,495)"/>
<path d="M0 0 C2 1 2 1 2 1 Z " fill="#6976F0" transform="translate(353,494)"/>
<path d="M0 0 C2 1 2 1 2 1 Z " fill="#5262EF" transform="translate(157,494)"/>
<path d="M0 0 C2 1 2 1 2 1 Z " fill="#818CF3" transform="translate(356,493)"/>
<path d="M0 0 C2 1 2 1 2 1 Z " fill="#838FF3" transform="translate(154,493)"/>
<path d="M0 0 C2 1 2 1 2 1 Z " fill="#7A86F3" transform="translate(358,492)"/>
<path d="M0 0 C2 1 2 1 2 1 Z " fill="#7582F2" transform="translate(152,492)"/>
<path d="M0 0 C2 1 2 1 2 1 Z " fill="#6D7AF2" transform="translate(360,491)"/>
<path d="M0 0 C2 1 2 1 2 1 Z " fill="#5866EF" transform="translate(150,491)"/>
<path d="M0 0 C2 1 2 1 2 1 Z " fill="#5463F0" transform="translate(362,490)"/>
<path d="M0 0 C2 1 2 1 2 1 Z " fill="#8E98F4" transform="translate(145,489)"/>
<path d="M0 0 C2 1 2 1 2 1 Z " fill="#8590F3" transform="translate(143,488)"/>
<path d="M0 0 C2 1 2 1 2 1 Z " fill="#8792F3" transform="translate(141,487)"/>
<path d="M0 0 C2 1 2 1 2 1 Z " fill="#8893F3" transform="translate(139,486)"/>
<path d="M0 0 C2 1 2 1 2 1 Z " fill="#8B96F3" transform="translate(137,485)"/>
<path d="M0 0 C2 1 2 1 2 1 Z " fill="#5D6CF0" transform="translate(378,482)"/>
<path d="M0 0 C2 1 2 1 2 1 Z " fill="#7581F2" transform="translate(380,481)"/>
<path d="M0 0 C2 1 2 1 2 1 Z " fill="#5565EF" transform="translate(130,481)"/>
<path d="M0 0 C2 1 2 1 2 1 Z " fill="#7E89F2" transform="translate(382,480)"/>
<path d="M0 0 C2 1 2 1 2 1 Z " fill="#808BF2" transform="translate(128,480)"/>
<path d="M0 0 C2 1 2 1 2 1 Z " fill="#7783F2" transform="translate(387,477)"/>
<path d="M0 0 C2 1 2 1 2 1 Z " fill="#6B7AF2" transform="translate(123,477)"/>
<path d="M0 0 C2 1 2 1 2 1 Z " fill="#4A5CEF" transform="translate(390,475)"/>
<path d="M0 0 C2 1 2 1 2 1 Z " fill="#7B87F3" transform="translate(392,474)"/>
<path d="M0 0 C2 1 2 1 2 1 Z " fill="#F9F9FE" transform="translate(118,474)"/>
<path d="M0 0 C2 1 2 1 2 1 Z " fill="#7683F2" transform="translate(395,472)"/>
<path d="M0 0 C2 1 2 1 2 1 Z " fill="#FFFFFF" transform="translate(115,472)"/>
<path d="M0 0 C2 1 2 1 2 1 Z " fill="#7380F1" transform="translate(398,470)"/>
<path d="M0 0 C2 1 2 1 2 1 Z " fill="#FFFFFF" transform="translate(112,470)"/>
<path d="M0 0 C2 1 2 1 2 1 Z " fill="#7582F2" transform="translate(401,468)"/>
<path d="M0 0 C2 1 2 1 2 1 Z " fill="#FFFFFF" transform="translate(109,468)"/>
<path d="M0 0 C2 1 2 1 2 1 Z " fill="#4F62EF" transform="translate(405,465)"/>
<path d="M0 0 C2 1 2 1 2 1 Z " fill="#7884F2" transform="translate(408,463)"/>
<path d="M0 0 C2 1 2 1 2 1 Z " fill="#FFFFFF" transform="translate(102,463)"/>
<path d="M0 0 C2 1 2 1 2 1 Z " fill="#7985F3" transform="translate(417,456)"/>
<path d="M0 0 C2 1 2 1 2 1 Z " fill="#FFFFFF" transform="translate(93,456)"/>
<path d="M0 0 C2 1 2 1 2 1 Z " fill="#5061ED" transform="translate(424,450)"/>
<path d="" fill="#FFFFFF" transform="translate(0,0)"/>
<path d="" fill="#7580F1" transform="translate(0,0)"/>
<path d="" fill="#FFFFFF" transform="translate(0,0)"/>
<path d="" fill="#FFFFFF" transform="translate(0,0)"/>
<path d="" fill="#7380F1" transform="translate(0,0)"/>
<path d="" fill="#FEFEFE" transform="translate(0,0)"/>
<path d="" fill="#727EF1" transform="translate(0,0)"/>
<path d="" fill="#FFFFFF" transform="translate(0,0)"/>
<path d="" fill="#6F7CF2" transform="translate(0,0)"/>
<path d="" fill="#FFFFFF" transform="translate(0,0)"/>
<path d="" fill="#707EF1" transform="translate(0,0)"/>
<path d="" fill="#FFFFFF" transform="translate(0,0)"/>
<path d="" fill="#7481F2" transform="translate(0,0)"/>
<path d="" fill="#FFFFFF" transform="translate(0,0)"/>
<path d="" fill="#727EF1" transform="translate(0,0)"/>
<path d="" fill="#FFFFFF" transform="translate(0,0)"/>
<path d="" fill="#7380F1" transform="translate(0,0)"/>
<path d="" fill="#FFFFFF" transform="translate(0,0)"/>
<path d="" fill="#707DF1" transform="translate(0,0)"/>
<path d="" fill="#FFFFFF" transform="translate(0,0)"/>
<path d="" fill="#FEFEFE" transform="translate(0,0)"/>
<path d="" fill="#7581F2" transform="translate(0,0)"/>
<path d="" fill="#FFFFFF" transform="translate(0,0)"/>
<path d="" fill="#7480F2" transform="translate(0,0)"/>
<path d="" fill="#FFFFFF" transform="translate(0,0)"/>
<path d="" fill="#7481F2" transform="translate(0,0)"/>
<path d="" fill="#FFFFFF" transform="translate(0,0)"/>
<path d="" fill="#FFFFFF" transform="translate(0,0)"/>
<path d="" fill="#6D79F1" transform="translate(0,0)"/>
<path d="" fill="#FFFFFF" transform="translate(0,0)"/>
<path d="" fill="#727FF1" transform="translate(0,0)"/>
<path d="" fill="#FFFFFF" transform="translate(0,0)"/>
<path d="" fill="#737FF2" transform="translate(0,0)"/>
<path d="" fill="#FFFFFF" transform="translate(0,0)"/>
<path d="" fill="#6D7AF1" transform="translate(0,0)"/>
<path d="" fill="#FFFFFF" transform="translate(0,0)"/>
<path d="" fill="#727EF2" transform="translate(0,0)"/>
<path d="" fill="#FFFFFF" transform="translate(0,0)"/>
<path d="" fill="#6C78F0" transform="translate(0,0)"/>
<path d="" fill="#727FF2" transform="translate(0,0)"/>
<path d="" fill="#FEFEFE" transform="translate(0,0)"/>
<path d="" fill="#737FF2" transform="translate(0,0)"/>
<path d="" fill="#FEFEFE" transform="translate(0,0)"/>
<path d="" fill="#6D7AF1" transform="translate(0,0)"/>
<path d="" fill="#717EF2" transform="translate(0,0)"/>
<path d="" fill="#7380F2" transform="translate(0,0)"/>
<path d="" fill="#FEFEFE" transform="translate(0,0)"/>
<path d="" fill="#7581F2" transform="translate(0,0)"/>
<path d="" fill="#7380F2" transform="translate(0,0)"/>
<path d="" fill="#737FF2" transform="translate(0,0)"/>
<path d="" fill="#FEFEFE" transform="translate(0,0)"/>
<path d="" fill="#6E7AF1" transform="translate(0,0)"/>
<path d="" fill="#727FF2" transform="translate(0,0)"/>
<path d="" fill="#FEFEFE" transform="translate(0,0)"/>
<path d="" fill="#7380F1" transform="translate(0,0)"/>
<path d="" fill="#FFFFFF" transform="translate(0,0)"/>
<path d="" fill="#6A78F1" transform="translate(0,0)"/>
<path d="" fill="#7380F2" transform="translate(0,0)"/>
<path d="" fill="#FFFFFF" transform="translate(0,0)"/>
<path d="" fill="#6D7AF1" transform="translate(0,0)"/>
<path d="" fill="#FFFFFF" transform="translate(0,0)"/>
<path d="" fill="#7481F2" transform="translate(0,0)"/>
<path d="" fill="#FFFFFF" transform="translate(0,0)"/>
<path d="" fill="#727FF2" transform="translate(0,0)"/>
<path d="" fill="#FFFFFF" transform="translate(0,0)"/>
<path d="" fill="#6E7AF1" transform="translate(0,0)"/>
<path d="" fill="#FFFFFF" transform="translate(0,0)"/>
<path d="" fill="#6371F1" transform="translate(0,0)"/>
<path d="" fill="#FFFFFF" transform="translate(0,0)"/>
<path d="" fill="#FFFFFF" transform="translate(0,0)"/>
<path d="" fill="#FFFFFF" transform="translate(0,0)"/>
<path d="" fill="#7784F2" transform="translate(0,0)"/>
<path d="" fill="#FEFEFE" transform="translate(0,0)"/>
<path d="" fill="#FFFFFF" transform="translate(0,0)"/>
<path d="" fill="#6472F2" transform="translate(0,0)"/>
<path d="" fill="#717DF2" transform="translate(0,0)"/>
<path d="" fill="#FFFFFF" transform="translate(0,0)"/>
<path d="" fill="#7682F2" transform="translate(0,0)"/>
<path d="" fill="#FFFFFF" transform="translate(0,0)"/>
<path d="" fill="#7380F2" transform="translate(0,0)"/>
<path d="" fill="#FEFEFE" transform="translate(0,0)"/>
<path d="" fill="#5865EF" transform="translate(0,0)"/>
<path d="" fill="#7683F3" transform="translate(0,0)"/>
<path d="" fill="#FFFFFF" transform="translate(0,0)"/>
<path d="" fill="#717FF1" transform="translate(0,0)"/>
<path d="" fill="#FFFFFF" transform="translate(0,0)"/>
<path d="" fill="#707DF2" transform="translate(0,0)"/>
<path d="" fill="#FFFFFF" transform="translate(0,0)"/>
<path d="" fill="#727FF1" transform="translate(0,0)"/>
<path d="" fill="#FFFFFF" transform="translate(0,0)"/>
<path d="" fill="#7581F1" transform="translate(0,0)"/>
<path d="" fill="#FFFFFF" transform="translate(0,0)"/>
<path d="" fill="#FEFEFE" transform="translate(0,0)"/>
<path d="" fill="#7582F2" transform="translate(0,0)"/>
<path d="" fill="#FEFEFE" transform="translate(0,0)"/>
<path d="" fill="#FEFEFE" transform="translate(0,0)"/>
<path d="M0 0 C2 1 2 1 2 1 Z " fill="#7581F2" transform="translate(423,60)"/>
<path d="M0 0 C2 1 2 1 2 1 Z " fill="#FEFEFE" transform="translate(87,60)"/>
<path d="M0 0 C2 1 2 1 2 1 Z " fill="#7380F2" transform="translate(417,55)"/>
<path d="M0 0 C2 1 2 1 2 1 Z " fill="#FEFEFE" transform="translate(93,55)"/>
<path d="M0 0 C2 1 2 1 2 1 Z " fill="#7682F2" transform="translate(412,51)"/>
<path d="M0 0 C2 1 2 1 2 1 Z " fill="#7480F2" transform="translate(408,48)"/>
<path d="M0 0 C2 1 2 1 2 1 Z " fill="#FFFFFF" transform="translate(102,48)"/>
<path d="M0 0 C2 1 2 1 2 1 Z " fill="#737FF2" transform="translate(401,43)"/>
<path d="M0 0 C2 1 2 1 2 1 Z " fill="#FFFFFF" transform="translate(109,43)"/>
<path d="M0 0 C2 1 2 1 2 1 Z " fill="#6F7CF1" transform="translate(398,41)"/>
<path d="M0 0 C2 1 2 1 2 1 Z " fill="#FFFFFF" transform="translate(112,41)"/>
<path d="M0 0 C2 1 2 1 2 1 Z " fill="#717EF1" transform="translate(395,39)"/>
<path d="M0 0 C2 1 2 1 2 1 Z " fill="#FFFFFF" transform="translate(115,39)"/>
<path d="M0 0 C2 1 2 1 2 1 Z " fill="#7884F2" transform="translate(392,37)"/>
<path d="M0 0 C2 1 2 1 2 1 Z " fill="#FFFFFF" transform="translate(118,37)"/>
<path d="M0 0 C2 1 2 1 2 1 Z " fill="#7581F2" transform="translate(387,34)"/>
<path d="M0 0 C2 1 2 1 2 1 Z " fill="#FFFFFF" transform="translate(123,34)"/>
<path d="M0 0 C2 1 2 1 2 1 Z " fill="#7A85F2" transform="translate(382,31)"/>
<path d="M0 0 C2 1 2 1 2 1 Z " fill="#FFFFFF" transform="translate(128,31)"/>
<path d="M0 0 C2 1 2 1 2 1 Z " fill="#7380F2" transform="translate(380,30)"/>
<path d="M0 0 C2 1 2 1 2 1 Z " fill="#FFFFFF" transform="translate(130,30)"/>
<path d="M0 0 C2 1 2 1 2 1 Z " fill="#FFFFFF" transform="translate(132,29)"/>
<path d="M0 0 C2 1 2 1 2 1 Z " fill="#808CF3" transform="translate(371,25)"/>
<path d="M0 0 C2 1 2 1 2 1 Z " fill="#7F8AF3" transform="translate(369,24)"/>
<path d="M0 0 C2 1 2 1 2 1 Z " fill="#7E8AF3" transform="translate(367,23)"/>
<path d="M0 0 C2 1 2 1 2 1 Z " fill="#FEFEFE" transform="translate(148,21)"/>
<path d="M0 0 C2 1 2 1 2 1 Z " fill="#6A77F1" transform="translate(360,20)"/>
<path d="M0 0 C2 1 2 1 2 1 Z " fill="#FFFFFF" transform="translate(150,20)"/>
<path d="M0 0 C2 1 2 1 2 1 Z " fill="#7885F2" transform="translate(358,19)"/>
<path d="M0 0 C2 1 2 1 2 1 Z " fill="#FFFFFF" transform="translate(152,19)"/>
<path d="M0 0 C2 1 2 1 2 1 Z " fill="#7F8AF3" transform="translate(356,18)"/>
<path d="M0 0 C2 1 2 1 2 1 Z " fill="#FFFFFF" transform="translate(154,18)"/>
<path d="M0 0 C2 1 2 1 2 1 Z " fill="#6A78F1" transform="translate(353,17)"/>
<path d="M0 0 C2 1 2 1 2 1 Z " fill="#FEFEFE" transform="translate(157,17)"/>
<path d="M0 0 C2 1 2 1 2 1 Z " fill="#7D89F3" transform="translate(351,16)"/>
<path d="M0 0 C2 1 2 1 2 1 Z " fill="#FFFFFF" transform="translate(159,16)"/>
<path d="M0 0 C2 1 2 1 2 1 Z " fill="#6774F0" transform="translate(348,15)"/>
<path d="M0 0 C2 1 2 1 2 1 Z " fill="#FFFFFF" transform="translate(162,15)"/>
<path d="M0 0 C2 1 2 1 2 1 Z " fill="#7F8BF3" transform="translate(346,14)"/>
<path d="M0 0 C2 1 2 1 2 1 Z " fill="#FFFFFF" transform="translate(164,14)"/>
<path d="M0 0 C2 1 2 1 2 1 Z " fill="#7884F2" transform="translate(343,13)"/>
<path d="M0 0 C2 1 2 1 2 1 Z " fill="#FFFFFF" transform="translate(167,13)"/>
<path d="M0 0 C2 1 2 1 2 1 Z " fill="#6977F1" transform="translate(340,12)"/>
<path d="M0 0 C2 1 2 1 2 1 Z " fill="#FFFFFF" transform="translate(170,12)"/>
<path d="M0 0 C2 1 2 1 2 1 Z " fill="#5E6EF0" transform="translate(337,11)"/>
<path d="M0 0 C2 1 2 1 2 1 Z " fill="#FFFFFF" transform="translate(173,11)"/>
<path d="M0 0 C2 1 2 1 2 1 Z " fill="#6674F1" transform="translate(334,10)"/>
<path d="M0 0 C2 1 2 1 2 1 Z " fill="#FFFFFF" transform="translate(176,10)"/>
<path d="M0 0 C2 1 2 1 2 1 Z " fill="#7380F2" transform="translate(331,9)"/>
<path d="M0 0 C2 1 2 1 2 1 Z " fill="#FFFFFF" transform="translate(179,9)"/>
<path d="M0 0 C2 1 2 1 2 1 Z " fill="#848FF4" transform="translate(328,8)"/>
<path d="M0 0 C2 1 2 1 2 1 Z " fill="#FFFFFF" transform="translate(182,8)"/>
<path d="M0 0 C2 1 2 1 2 1 Z " fill="#8994F3" transform="translate(317,5)"/>
<path d="" fill="#7F8AF3" transform="translate(0,0)"/>
<path d="" fill="#7B87F3" transform="translate(0,0)"/>
<path d="" fill="#7985F3" transform="translate(0,0)"/>
<path d="" fill="#7784F3" transform="translate(0,0)"/>
<path d="" fill="#7784F3" transform="translate(0,0)"/>
<path d="" fill="#7884F3" transform="translate(0,0)"/>
<path d="" fill="#7A86F3" transform="translate(0,0)"/>
<path d="" fill="#7A86F3" transform="translate(0,0)"/>
<path d="" fill="#7E8AF3" transform="translate(0,0)"/>
<path d="" fill="#808BF3" transform="translate(0,0)"/>
<path d="" fill="#838EF4" transform="translate(0,0)"/>
<path d="" fill="#7984F3" transform="translate(0,0)"/>
<path d="" fill="#7884F2" transform="translate(0,0)"/>
<path d="" fill="#808BF3" transform="translate(0,0)"/>
<path d="" fill="#8690F4" transform="translate(0,0)"/>
<path d="" fill="#7A85F2" transform="translate(0,0)"/>
<path d="" fill="#7482F3" transform="translate(0,0)"/>
<path d="" fill="#F2F3FE" transform="translate(0,0)"/>
<path d="" fill="#7B87F3" transform="translate(0,0)"/>
<path d="" fill="#FFFFFF" transform="translate(0,0)"/>
<path d="" fill="#7885F2" transform="translate(0,0)"/>
<path d="" fill="#FFFFFF" transform="translate(0,0)"/>
<path d="" fill="#7985F2" transform="translate(0,0)"/>
<path d="" fill="#FFFFFF" transform="translate(0,0)"/>
<path d="" fill="#7B86F3" transform="translate(0,0)"/>
<path d="" fill="#FFFFFF" transform="translate(0,0)"/>
<path d="" fill="#717EF2" transform="translate(0,0)"/>
<path d="" fill="#FFFFFF" transform="translate(0,0)"/>
<path d="" fill="#FFFFFF" transform="translate(0,0)"/>
<path d="" fill="#7884F3" transform="translate(0,0)"/>
<path d="" fill="#FFFFFF" transform="translate(0,0)"/>
<path d="" fill="#808AF2" transform="translate(0,0)"/>
<path d="" fill="#FFFFFF" transform="translate(0,0)"/>
<path d="" fill="#7682F2" transform="translate(0,0)"/>
<path d="" fill="#FFFFFF" transform="translate(0,0)"/>
<path d="" fill="#6E7BF2" transform="translate(0,0)"/>
<path d="" fill="#FFFFFF" transform="translate(0,0)"/>
<path d="" fill="#808AF3" transform="translate(0,0)"/>
<path d="" fill="#FFFFFF" transform="translate(0,0)"/>
<path d="" fill="#7A85F3" transform="translate(0,0)"/>
<path d="" fill="#FFFFFF" transform="translate(0,0)"/>
<path d="" fill="#7280F2" transform="translate(0,0)"/>
<path d="" fill="#FFFFFF" transform="translate(0,0)"/>
<path d="" fill="#808BF3" transform="translate(0,0)"/>
<path d="" fill="#FFFFFF" transform="translate(0,0)"/>
<path d="" fill="#7985F2" transform="translate(0,0)"/>
<path d="" fill="#FFFFFF" transform="translate(0,0)"/>
<path d="" fill="#7481F2" transform="translate(0,0)"/>
<path d="" fill="#FFFFFF" transform="translate(0,0)"/>
<path d="" fill="#7481F2" transform="translate(0,0)"/>
<path d="" fill="#FFFFFF" transform="translate(0,0)"/>
<path d="" fill="#6A78F1" transform="translate(0,0)"/>
<path d="" fill="#FFFFFF" transform="translate(0,0)"/>
<path d="" fill="#FFFFFF" transform="translate(0,0)"/>
<path d="" fill="#7C88F2" transform="translate(0,0)"/>
<path d="" fill="#FFFFFF" transform="translate(0,0)"/>
<path d="" fill="#7984F3" transform="translate(0,0)"/>
<path d="" fill="#FFFFFF" transform="translate(0,0)"/>
<path d="" fill="#7480F2" transform="translate(0,0)"/>
<path d="" fill="#FEFEFE" transform="translate(0,0)"/>
<path d="" fill="#7480F2" transform="translate(0,0)"/>
<path d="" fill="#FFFFFF" transform="translate(0,0)"/>
<path d="" fill="#7482F2" transform="translate(0,0)"/>
<path d="" fill="#FFFFFF" transform="translate(0,0)"/>
<path d="" fill="#7581F1" transform="translate(0,0)"/>
<path d="" fill="#FFFFFF" transform="translate(0,0)"/>
<path d="" fill="#737EF2" transform="translate(0,0)"/>
<path d="" fill="#FEFEFE" transform="translate(0,0)"/>
<path d="" fill="#6F7CF2" transform="translate(0,0)"/>
<path d="" fill="#FFFFFF" transform="translate(0,0)"/>
<path d="" fill="#6C78F1" transform="translate(0,0)"/>
<path d="" fill="#FFFFFF" transform="translate(0,0)"/>
<path d="" fill="#6372F0" transform="translate(0,0)"/>
<path d="" fill="#FFFFFF" transform="translate(0,0)"/>
<path d="" fill="#5969EF" transform="translate(0,0)"/>
<path d="" fill="#FFFFFF" transform="translate(0,0)"/>
<path d="" fill="#5665EF" transform="translate(0,0)"/>
<path d="" fill="#FFFFFF" transform="translate(0,0)"/>
<path d="" fill="#5664F1" transform="translate(0,0)"/>
<path d="" fill="#FFFFFF" transform="translate(0,0)"/>
<path d="" fill="#5A6AF1" transform="translate(0,0)"/>
<path d="" fill="#FFFFFF" transform="translate(0,0)"/>
<path d="" fill="#6272F0" transform="translate(0,0)"/>
<path d="" fill="#FFFFFF" transform="translate(0,0)"/>
<path d="" fill="#6877F2" transform="translate(0,0)"/>
<path d="" fill="#FFFFFF" transform="translate(0,0)"/>
<path d="" fill="#6F7DF2" transform="translate(0,0)"/>
<path d="" fill="#FFFFFF" transform="translate(0,0)"/>
<path d="" fill="#7381F1" transform="translate(0,0)"/>
<path d="" fill="#FEFEFE" transform="translate(0,0)"/>
<path d="" fill="#7580F2" transform="translate(0,0)"/>
<path d="" fill="#FFFFFF" transform="translate(0,0)"/>
<path d="" fill="#7480F2" transform="translate(0,0)"/>
<path d="" fill="#FFFFFF" transform="translate(0,0)"/>
<path d="" fill="#7380F2" transform="translate(0,0)"/>
<path d="" fill="#FFFFFF" transform="translate(0,0)"/>
<path d="" fill="#7481F2" transform="translate(0,0)"/>
<path d="" fill="#FEFEFE" transform="translate(0,0)"/>
<path d="" fill="#7783F2" transform="translate(0,0)"/>
<path d="" fill="#FFFFFF" transform="translate(0,0)"/>
<path d="" fill="#7986F3" transform="translate(0,0)"/>
<path d="" fill="#FFFFFF" transform="translate(0,0)"/>
<path d="" fill="#7E8AF2" transform="translate(0,0)"/>
<path d="" fill="#FFFFFF" transform="translate(0,0)"/>
<path d="" fill="#6C7BF3" transform="translate(0,0)"/>
<path d="" fill="#7380F3" transform="translate(0,0)"/>
<path d="" fill="#FFFFFF" transform="translate(0,0)"/>
<path d="" fill="#7380F3" transform="translate(0,0)"/>
<path d="" fill="#FFFFFF" transform="translate(0,0)"/>
<path d="" fill="#7783F2" transform="translate(0,0)"/>
<path d="" fill="#FFFFFF" transform="translate(0,0)"/>
<path d="" fill="#7A85F2" transform="translate(0,0)"/>
<path d="" fill="#FFFFFF" transform="translate(0,0)"/>
<path d="" fill="#717EF2" transform="translate(0,0)"/>
<path d="" fill="#FFFFFF" transform="translate(0,0)"/>
<path d="" fill="#7682F2" transform="translate(0,0)"/>
<path d="" fill="#FFFFFF" transform="translate(0,0)"/>
<path d="" fill="#7985F2" transform="translate(0,0)"/>
<path d="" fill="#FFFFFF" transform="translate(0,0)"/>
<path d="" fill="#6F7DF2" transform="translate(0,0)"/>
<path d="" fill="#7480F2" transform="translate(0,0)"/>
<path d="" fill="#FFFFFF" transform="translate(0,0)"/>
<path d="" fill="#7884F2" transform="translate(0,0)"/>
<path d="" fill="#FFFFFF" transform="translate(0,0)"/>
<path d="" fill="#727FF2" transform="translate(0,0)"/>
<path d="" fill="#FEFEFE" transform="translate(0,0)"/>
<path d="" fill="#7885F3" transform="translate(0,0)"/>
<path d="" fill="#FFFFFF" transform="translate(0,0)"/>
<path d="" fill="#727EF2" transform="translate(0,0)"/>
<path d="" fill="#FFFFFF" transform="translate(0,0)"/>
<path d="" fill="#7682F2" transform="translate(0,0)"/>
<path d="" fill="#FFFFFF" transform="translate(0,0)"/>
<path d="" fill="#737FF2" transform="translate(0,0)"/>
<path d="" fill="#FFFFFF" transform="translate(0,0)"/>
<path d="" fill="#727FF1" transform="translate(0,0)"/>
<path d="" fill="#FFFFFF" transform="translate(0,0)"/>
<path d="" fill="#7380F1" transform="translate(0,0)"/>
<path d="" fill="#FFFFFF" transform="translate(0,0)"/>
<path d="" fill="#7784F2" transform="translate(0,0)"/>
<path d="" fill="#FFFFFF" transform="translate(0,0)"/>
<path d="" fill="#717FF2" transform="translate(0,0)"/>
<path d="" fill="#FFFFFF" transform="translate(0,0)"/>
<path d="" fill="#7682F2" transform="translate(0,0)"/>
<path d="" fill="#FFFFFF" transform="translate(0,0)"/>
<path d="" fill="#727EF2" transform="translate(0,0)"/>
<path d="" fill="#FFFFFF" transform="translate(0,0)"/>
<path d="" fill="#7581F2" transform="translate(0,0)"/>
<path d="" fill="#FFFFFF" transform="translate(0,0)"/>
<path d="" fill="#7380F2" transform="translate(0,0)"/>
<path d="" fill="#FFFFFF" transform="translate(0,0)"/>
<path d="" fill="#737FF3" transform="translate(0,0)"/>
<path d="" fill="#FFFFFF" transform="translate(0,0)"/>
<path d="" fill="#717EF2" transform="translate(0,0)"/>
<path d="" fill="#7280F2" transform="translate(0,0)"/>
<path d="" fill="#7480F2" transform="translate(0,0)"/>
<path d="" fill="#FFFFFF" transform="translate(0,0)"/>
<path d="" fill="#FEFEFE" transform="translate(0,0)"/>
<path d="" fill="#7581F2" transform="translate(0,0)"/>
<path d="" fill="#737FF3" transform="translate(0,0)"/>
<path d="" fill="#737EF2" transform="translate(0,0)"/>
<path d="" fill="#7480F2" transform="translate(0,0)"/>
<path d="" fill="#7481F2" transform="translate(0,0)"/>
<path d="" fill="#FFFFFF" transform="translate(0,0)"/>
<path d="" fill="#7582F2" transform="translate(0,0)"/>
<path d="" fill="#FFFFFF" transform="translate(0,0)"/>
<path d="" fill="#FFFFFF" transform="translate(0,0)"/>
<path d="" fill="#737FF2" transform="translate(0,0)"/>
<path d="" fill="#FFFFFF" transform="translate(0,0)"/>
<path d="" fill="#7986F3" transform="translate(0,0)"/>
<path d="" fill="#FFFFFF" transform="translate(0,0)"/>
<path d="" fill="#737FF2" transform="translate(0,0)"/>
<path d="" fill="#FFFFFF" transform="translate(0,0)"/>
<path d="" fill="#FFFFFF" transform="translate(0,0)"/>
<path d="" fill="#7783F2" transform="translate(0,0)"/>
<path d="" fill="#FFFFFF" transform="translate(0,0)"/>
<path d="" fill="#7381F1" transform="translate(0,0)"/>
<path d="" fill="#FFFFFF" transform="translate(0,0)"/>
<path d="" fill="#7682F2" transform="translate(0,0)"/>
<path d="" fill="#FFFFFF" transform="translate(0,0)"/>
<path d="" fill="#7683F2" transform="translate(0,0)"/>
<path d="" fill="#FFFFFF" transform="translate(0,0)"/>
<path d="" fill="#727EF2" transform="translate(0,0)"/>
<path d="" fill="#FFFFFF" transform="translate(0,0)"/>
<path d="" fill="#7C87F3" transform="translate(0,0)"/>
<path d="" fill="#FFFFFF" transform="translate(0,0)"/>
<path d="" fill="#7581F2" transform="translate(0,0)"/>
<path d="" fill="#FEFEFE" transform="translate(0,0)"/>
<path d="" fill="#7B86F3" transform="translate(0,0)"/>
<path d="" fill="#FFFFFF" transform="translate(0,0)"/>
<path d="" fill="#7480F2" transform="translate(0,0)"/>
<path d="" fill="#FFFFFF" transform="translate(0,0)"/>
<path d="" fill="#6E7BF2" transform="translate(0,0)"/>
<path d="" fill="#7B87F3" transform="translate(0,0)"/>
<path d="" fill="#FFFFFF" transform="translate(0,0)"/>
<path d="" fill="#7682F2" transform="translate(0,0)"/>
<path d="" fill="#FFFFFF" transform="translate(0,0)"/>
<path d="" fill="#717EF2" transform="translate(0,0)"/>
<path d="" fill="#FFFFFF" transform="translate(0,0)"/>
<path d="" fill="#7B87F2" transform="translate(0,0)"/>
<path d="" fill="#FEFEFE" transform="translate(0,0)"/>
<path d="" fill="#7884F2" transform="translate(0,0)"/>
<path d="" fill="#FFFFFF" transform="translate(0,0)"/>
<path d="" fill="#737FF2" transform="translate(0,0)"/>
<path d="" fill="#FFFFFF" transform="translate(0,0)"/>
<path d="" fill="#737FF2" transform="translate(0,0)"/>
<path d="" fill="#FFFFFF" transform="translate(0,0)"/>
<path d="" fill="#6C79F1" transform="translate(0,0)"/>
<path d="" fill="#7E89F3" transform="translate(0,0)"/>
<path d="" fill="#FFFFFF" transform="translate(0,0)"/>
<path d="" fill="#7A85F3" transform="translate(0,0)"/>
<path d="" fill="#FFFFFF" transform="translate(0,0)"/>
<path d="" fill="#7682F2" transform="translate(0,0)"/>
<path d="" fill="#FFFFFF" transform="translate(0,0)"/>
<path d="" fill="#747FF2" transform="translate(0,0)"/>
<path d="" fill="#FFFFFF" transform="translate(0,0)"/>
<path d="" fill="#737FF1" transform="translate(0,0)"/>
<path d="" fill="#FFFFFF" transform="translate(0,0)"/>
<path d="" fill="#7480F2" transform="translate(0,0)"/>
<path d="" fill="#FFFFFF" transform="translate(0,0)"/>
<path d="" fill="#7580F3" transform="translate(0,0)"/>
<path d="" fill="#FFFFFF" transform="translate(0,0)"/>
<path d="" fill="#737FF1" transform="translate(0,0)"/>
<path d="" fill="#FFFFFF" transform="translate(0,0)"/>
<path d="" fill="#6C7AF0" transform="translate(0,0)"/>
<path d="" fill="#FFFFFF" transform="translate(0,0)"/>
<path d="" fill="#6775F2" transform="translate(0,0)"/>
<path d="" fill="#FFFFFF" transform="translate(0,0)"/>
<path d="" fill="#6472F1" transform="translate(0,0)"/>
<path d="" fill="#FEFEFE" transform="translate(0,0)"/>
<path d="" fill="#5A69F0" transform="translate(0,0)"/>
<path d="" fill="#FFFFFF" transform="translate(0,0)"/>
<path d="" fill="#4E5FF0" transform="translate(0,0)"/>
<path d="" fill="#FEFEFE" transform="translate(0,0)"/>
<path d="" fill="#4D5EF0" transform="translate(0,0)"/>
<path d="" fill="#FFFFFF" transform="translate(0,0)"/>
<path d="" fill="#5768EF" transform="translate(0,0)"/>
<path d="" fill="#FFFFFF" transform="translate(0,0)"/>
<path d="" fill="#6071F1" transform="translate(0,0)"/>
<path d="" fill="#FFFFFF" transform="translate(0,0)"/>
<path d="" fill="#6775F1" transform="translate(0,0)"/>
<path d="" fill="#FEFEFE" transform="translate(0,0)"/>
<path d="" fill="#6E79F1" transform="translate(0,0)"/>
<path d="" fill="#FEFEFE" transform="translate(0,0)"/>
<path d="" fill="#717FF2" transform="translate(0,0)"/>
<path d="" fill="#FFFFFF" transform="translate(0,0)"/>
<path d="" fill="#7582F2" transform="translate(0,0)"/>
<path d="" fill="#FFFFFF" transform="translate(0,0)"/>
<path d="" fill="#7582F2" transform="translate(0,0)"/>
<path d="" fill="#FEFEFE" transform="translate(0,0)"/>
<path d="" fill="#7481F2" transform="translate(0,0)"/>
<path d="" fill="#FFFFFF" transform="translate(0,0)"/>
<path d="" fill="#7380F3" transform="translate(0,0)"/>
<path d="" fill="#FFFFFF" transform="translate(0,0)"/>
<path d="" fill="#7583F3" transform="translate(0,0)"/>
<path d="" fill="#FFFFFF" transform="translate(0,0)"/>
<path d="" fill="#7A86F3" transform="translate(0,0)"/>
<path d="" fill="#FFFFFF" transform="translate(0,0)"/>
<path d="" fill="#7D89F4" transform="translate(0,0)"/>
<path d="" fill="#FFFFFF" transform="translate(0,0)"/>
<path d="" fill="#727FF3" transform="translate(0,0)"/>
<path d="" fill="#FFFFFF" transform="translate(0,0)"/>
<path d="" fill="#727FF2" transform="translate(0,0)"/>
<path d="" fill="#FFFFFF" transform="translate(0,0)"/>
<path d="" fill="#7783F3" transform="translate(0,0)"/>
<path d="" fill="#FFFFFF" transform="translate(0,0)"/>
<path d="" fill="#7A86F3" transform="translate(0,0)"/>
<path d="" fill="#FFFFFF" transform="translate(0,0)"/>
<path d="" fill="#727EF2" transform="translate(0,0)"/>
<path d="" fill="#FFFFFF" transform="translate(0,0)"/>
<path d="" fill="#7782F2" transform="translate(0,0)"/>
<path d="" fill="#FFFFFF" transform="translate(0,0)"/>
<path d="" fill="#7C87F3" transform="translate(0,0)"/>
<path d="" fill="#FFFFFF" transform="translate(0,0)"/>
<path d="" fill="#FFFFFF" transform="translate(0,0)"/>
<path d="" fill="#7380F2" transform="translate(0,0)"/>
<path d="" fill="#FFFFFF" transform="translate(0,0)"/>
<path d="" fill="#7A86F2" transform="translate(0,0)"/>
<path d="" fill="#FFFFFF" transform="translate(0,0)"/>
<path d="" fill="#7581F2" transform="translate(0,0)"/>
<path d="" fill="#FFFFFF" transform="translate(0,0)"/>
<path d="" fill="#7D88F3" transform="translate(0,0)"/>
<path d="" fill="#FFFFFF" transform="translate(0,0)"/>
<path d="" fill="#707DF2" transform="translate(0,0)"/>
<path d="" fill="#FFFFFF" transform="translate(0,0)"/>
<path d="" fill="#7884F3" transform="translate(0,0)"/>
<path d="" fill="#FFFFFF" transform="translate(0,0)"/>
<path d="" fill="#7683F2" transform="translate(0,0)"/>
<path d="" fill="#FFFFFF" transform="translate(0,0)"/>
<path d="" fill="#7683F1" transform="translate(0,0)"/>
<path d="" fill="#FFFFFF" transform="translate(0,0)"/>
<path d="" fill="#7984F2" transform="translate(0,0)"/>
<path d="" fill="#FFFFFF" transform="translate(0,0)"/>
<path d="" fill="#7C88F3" transform="translate(0,0)"/>
<path d="" fill="#FEFEFE" transform="translate(0,0)"/>
<path d="" fill="#7682F2" transform="translate(0,0)"/>
<path d="" fill="#FFFFFF" transform="translate(0,0)"/>
<path d="" fill="#7B87F3" transform="translate(0,0)"/>
<path d="" fill="#FFFFFF" transform="translate(0,0)"/>
<path d="" fill="#7783F2" transform="translate(0,0)"/>
<path d="" fill="#FFFFFF" transform="translate(0,0)"/>
<path d="" fill="#7D89F3" transform="translate(0,0)"/>
<path d="" fill="#7A86F3" transform="translate(0,0)"/>
<path d="" fill="#FFFFFF" transform="translate(0,0)"/>
<path d="" fill="#7885F2" transform="translate(0,0)"/>
<path d="" fill="#FFFFFF" transform="translate(0,0)"/>
<path d="" fill="#7782F2" transform="translate(0,0)"/>
<path d="" fill="#FFFFFF" transform="translate(0,0)"/>
<path d="" fill="#FFFFFF" transform="translate(0,0)"/>
<path d="" fill="#FFFFFF" transform="translate(0,0)"/>
<path d="" fill="#FFFFFF" transform="translate(0,0)"/>
<path d="" fill="#7C89F3" transform="translate(0,0)"/>
<path d="" fill="#FFFFFF" transform="translate(0,0)"/>
<path d="" fill="#7B87F2" transform="translate(0,0)"/>
</svg>
